<svg width="60" height="25" viewBox="0 0 60 25" fill="none" xmlns="http://www.w3.org/2000/svg">
<path d="M12.5716 7.70052C13.1421 7.53552 13.7508 7.44746 14.3823 7.44746C17.1465 7.44746 19.4541 9.15045 19.9816 11.4145L23.8996 10.7213C23.0019 6.87544 19.0814 3.97998 14.3823 3.97998C13.3045 3.97998 12.2724 4.13179 11.3036 4.41342L12.5716 7.70052Z" fill="#FFCB05"/>
<path d="M7.94902 18.7147L10.599 16.1163C9.4174 15.2076 8.67174 13.8809 8.67174 12.4023C8.67174 10.926 9.4174 9.59926 10.599 8.6928L7.94902 6.09216C5.94057 7.63669 4.67261 9.8919 4.67261 12.4023C4.67261 14.915 5.94057 17.1702 7.94902 18.7147Z" fill="#00A4E0"/>
<path d="M19.9816 13.3969C19.4517 15.6587 17.1465 17.3593 14.3848 17.3593C13.7508 17.3593 13.1396 17.2713 12.5716 17.104L11.3036 20.3957C12.2724 20.675 13.307 20.8269 14.3848 20.8269C19.0788 20.8269 22.9968 17.9358 23.8996 14.0943L19.9816 13.3969Z" fill="#EF4123"/>
<path d="M27.3258 16.224C27.1963 16.0436 27.0239 15.7554 26.9174 15.5419C26.2961 14.2923 26.2681 12.9985 26.7906 11.7576C27.3662 10.3957 28.4669 9.35498 29.8895 8.82255C31.6772 8.15588 33.6528 8.28574 35.3671 9.16797C36.455 9.70922 37.2259 10.5453 37.8118 11.729C37.8853 11.8808 37.9512 12.0414 38.0171 12.1801L27.3258 16.224ZM30.8963 10.8314C29.6258 11.3044 28.9715 12.3385 29.1085 13.5486L34.4846 11.5398C33.559 10.5981 32.357 10.2857 30.8963 10.8314ZM35.1541 15.201C35.1516 15.201 35.1516 15.2031 35.1516 15.2031L35.04 15.1371C34.7179 15.5882 34.2183 15.9556 33.5869 16.1932C32.3849 16.6464 31.2715 16.5298 30.4703 15.9204L30.3967 16.0172C30.3967 16.0172 30.3967 16.015 30.3942 16.015L29.0299 17.7862C29.3695 17.9907 29.7323 18.1624 30.1127 18.301C31.619 18.8444 33.1608 18.818 34.6799 18.246C35.778 17.8323 36.6402 17.2031 37.2284 16.4044L35.1541 15.201ZM41.7526 6.21753V16.0612L43.5176 16.6816L42.5159 18.7103L40.5683 18.0062C40.1322 17.8412 39.8329 17.5903 39.6097 17.3065C39.3942 17.0183 39.2343 16.6201 39.2343 16.0876V6.21753H41.7526ZM46.3223 13.5552C46.3223 12.7169 46.7509 11.9644 47.4255 11.454L45.6149 9.70262C44.3874 10.6444 43.614 12.0194 43.614 13.5508C43.6114 15.0843 44.3849 16.4616 45.6097 17.4033L47.4179 15.652C46.7458 15.1394 46.3223 14.3912 46.3223 13.5552ZM49.5379 16.3472C49.1828 16.3472 48.8381 16.2944 48.5185 16.202L47.6538 18.4308C48.2446 18.6024 48.876 18.6971 49.5354 18.6971C52.401 18.6992 54.7923 16.9347 55.3477 14.5914L52.6901 14.1206C52.3883 15.3946 51.0924 16.3494 49.5379 16.3472ZM49.5455 8.41331C48.8888 8.41331 48.2573 8.50574 47.6664 8.67512L48.5235 10.9062C48.8456 10.8137 49.188 10.7631 49.543 10.7631C51.1001 10.7653 52.3985 11.7246 52.6926 13.0007L55.3502 12.5343C54.805 10.1867 52.4136 8.41554 49.5455 8.41331Z" fill="white"/>
</svg>

