<svg width="98" height="36" viewBox="0 0 98 36" fill="none" xmlns="http://www.w3.org/2000/svg">
<path d="M26.1148 12.8063C26.5394 12.5662 27.0865 11.4728 26.4615 11.0176C26.2636 10.8735 25.9326 10.8317 25.4708 10.8958C25.0425 10.9551 24.7961 11.0746 24.6288 11.2616C24.3599 11.5623 24.1131 12.4694 24.5297 12.8064C24.9355 13.1344 25.8445 12.9589 26.1148 12.8063V12.8063ZM20.0715 11.0176C19.7673 12.6378 19.4245 14.2265 19.0808 15.8144C16.8741 15.8335 14.6211 15.9037 12.4927 15.7737C12.8947 14.2202 13.183 12.5733 13.5825 11.0176H11.2048C10.3537 14.9803 9.57935 19.0064 8.62901 22.8876H11.0563C11.4369 20.8968 11.7932 18.8855 12.2946 16.9933C14.3641 16.9514 16.8445 16.8785 18.8333 17.034C18.4232 19.0012 17.9277 20.8978 17.5454 22.8876H19.9727C20.7528 18.8664 21.5743 14.8795 22.5486 11.0176H20.0715V11.0176ZM54.3993 14.4323C52.5107 13.8063 51.0259 14.8642 50.3375 15.8551C50.4937 15.4142 50.5579 14.898 50.6845 14.4323H48.8021C48.3418 17.361 47.6636 20.1106 47.0189 22.8876H49.1491C49.4476 21.2393 49.5764 19.0173 50.2386 17.4404C50.768 16.1804 52.1532 15.1069 54.1519 15.6925C54.1796 15.2277 54.3418 14.8729 54.3993 14.4323V14.4323ZM55.5879 20.8959C55.3916 20.4795 55.341 19.7922 55.39 19.2696C55.5 18.0952 56.0216 16.6651 56.8266 16.0177C57.9373 15.1241 60.1302 15.272 61.8793 15.7738C61.9333 15.29 62.0518 14.8585 62.127 14.3918C59.2585 14.0073 56.5365 14.2466 55.0932 15.4894C53.6801 16.706 52.7542 19.5023 53.4087 21.2617C54.175 23.3206 57.6113 23.4325 60.3933 22.6439C60.5164 22.2301 60.5816 21.7687 60.6904 21.3432C59.17 21.9911 56.2636 22.3279 55.5879 20.8959V20.8959ZM79.5135 14.4729C77.6309 13.7004 76.0636 14.9966 75.4517 15.7737C75.626 15.3749 75.636 14.841 75.7983 14.4322H73.9161C73.4085 17.3355 72.7969 20.1532 72.0835 22.8875H74.2631C74.2768 21.7668 74.5451 20.9378 74.7582 19.839C75.2136 17.4922 75.8826 14.9188 79.2167 15.6924C79.3269 15.2956 79.3729 14.8454 79.5135 14.4729ZM23.9352 14.4323C23.8775 14.4391 23.8813 14.4966 23.8856 14.5542C23.4163 17.4346 22.781 20.1791 22.1024 22.8875H24.2324C24.7442 19.9877 25.3304 17.1492 26.0651 14.4322L23.9352 14.4323V14.4323ZM42.6594 14.2698C41.1203 14.3671 39.8194 14.7305 38.8948 15.5299C37.7608 16.5103 36.8426 18.6779 37.1116 20.652C37.4955 23.4682 41.7683 23.367 45.1858 22.6845C45.244 22.1901 45.3898 21.7676 45.4829 21.3023C44.0752 21.7346 41.6308 22.338 40.1825 21.587C39.0892 21.0196 39.0829 19.5834 39.4395 18.3349C41.7364 18.2749 44.1237 18.2863 46.4238 18.3349C46.5696 17.4501 46.9872 16.4853 46.6219 15.6114C46.1403 14.4576 44.4151 14.1586 42.6594 14.2698ZM44.6903 17.3591H39.687C39.8455 16.4153 40.8803 15.3778 42.5107 15.3266C44.0452 15.2785 45.1438 15.789 44.6903 17.3591V17.3591ZM34.5853 14.4323C32.7825 13.8766 30.5854 14.54 29.6328 15.171C29.6363 15.1988 29.6101 15.2026 29.582 15.2046C29.5982 15.1934 29.6159 15.1822 29.6328 15.171C29.6326 15.1687 29.6323 15.1664 29.6318 15.1641C29.6478 14.8927 29.7642 14.7037 29.7803 14.4323H27.9475C27.1838 18.6023 26.2781 22.6556 25.3223 26.6681H27.4523C27.7606 25.1054 27.9641 23.4568 28.3936 21.9933C28.88 23.5326 32.0563 23.2385 33.3966 22.6438C36.1619 21.4164 38.2949 15.5757 34.5853 14.4323V14.4323ZM32.9012 21.3023C31.7616 22.2927 28.96 22.2779 28.7402 20.6111C28.6446 19.886 28.9737 19.1257 29.1368 18.3755C29.3012 17.6161 29.4199 16.8875 29.5822 16.221C30.7047 15.0962 34.0031 14.9603 34.3378 16.8307C34.628 18.4546 33.8448 20.482 32.9012 21.3023V21.3023ZM87.439 10.7738C87.2564 12.0873 87.0124 13.3505 86.6962 14.5542C81.4713 13.1969 78.2672 16.3517 78.3249 20.2454C78.3362 20.9985 78.4941 21.7452 79.0677 22.2779C80.0571 23.1956 82.8886 23.4155 84.3187 22.6436C84.5952 22.4943 84.8782 22.2225 85.0615 22.034C85.1994 21.8921 85.4181 21.5204 85.4579 21.6275C85.3825 22.0399 85.2702 22.4222 85.26 22.8875H87.1918C87.5644 18.5046 88.7153 14.7611 89.5695 10.7736H87.4391V10.7738H87.439ZM82.6838 21.9526C81.2499 21.9779 80.5369 21.2496 80.504 20.0421C80.4469 17.9274 81.5773 15.5779 83.8726 15.3672C84.9413 15.2692 85.715 15.4731 86.498 15.6925C85.7791 18.068 86.0385 21.8936 82.6838 21.9526V21.9526ZM64.3062 14.4323C64.2014 14.9153 64.0404 15.3524 63.91 15.8144C65.1669 15.5557 69.0808 14.7627 69.4579 16.1395C69.5831 16.5969 69.3671 17.0829 69.2102 17.4404C65.6712 17.1653 62.7865 17.6478 62.0276 19.7168C61.5194 21.1026 62.0845 22.4664 63.167 22.8471C65.2517 23.5801 67.7875 22.7404 68.6653 21.587C68.5741 21.9862 68.4878 22.3898 68.517 22.8876H70.3496C70.3692 21.4472 70.6247 20.2812 70.8945 18.9851C71.1245 17.8813 71.5575 16.7886 71.489 15.8144C71.3313 13.5833 66.8273 14.3725 64.3062 14.4323V14.4323ZM67.7736 21.2616C66.676 22.1434 63.5947 22.3939 63.91 20.286C64.1716 18.5352 66.4946 18.1632 69.0117 18.4159C68.8248 19.3737 68.6101 20.5897 67.7736 21.2616V21.2616Z" fill="white"/>
</svg>

