<svg width="300" height="21" viewBox="0 0 300 21" fill="none" xmlns="http://www.w3.org/2000/svg">
<path d="M7.32386 6.71021C7.27841 6.25188 7.08333 5.89582 6.73864 5.64203C6.39394 5.38824 5.92614 5.26135 5.33523 5.26135C4.93371 5.26135 4.5947 5.31817 4.31818 5.4318C4.04167 5.54165 3.82955 5.69506 3.68182 5.89203C3.53788 6.089 3.46591 6.31248 3.46591 6.56248C3.45833 6.77082 3.50189 6.95264 3.59659 7.10794C3.69508 7.26324 3.82955 7.39771 4 7.51135C4.17045 7.6212 4.36742 7.71779 4.59091 7.80112C4.81439 7.88067 5.05303 7.94885 5.30682 8.00567L6.35227 8.25567C6.85985 8.3693 7.32576 8.52082 7.75 8.71021C8.17424 8.89961 8.54167 9.13256 8.85227 9.40908C9.16288 9.68559 9.40341 10.0113 9.57386 10.3863C9.74811 10.7613 9.83712 11.1913 9.84091 11.6761C9.83712 12.3882 9.6553 13.0057 9.29545 13.5284C8.93939 14.0473 8.42424 14.4507 7.75 14.7386C7.07955 15.0227 6.27083 15.1648 5.32386 15.1648C4.38447 15.1648 3.56629 15.0208 2.86932 14.7329C2.17614 14.4451 1.63447 14.0189 1.24432 13.4545C0.857955 12.8863 0.655303 12.1837 0.636364 11.3466H3.01705C3.04356 11.7367 3.1553 12.0625 3.35227 12.3238C3.55303 12.5814 3.82008 12.7765 4.15341 12.9091C4.49053 13.0379 4.87121 13.1023 5.29545 13.1023C5.71212 13.1023 6.07386 13.0417 6.38068 12.9204C6.69129 12.7992 6.93182 12.6307 7.10227 12.4148C7.27273 12.1988 7.35795 11.9507 7.35795 11.6704C7.35795 11.4091 7.2803 11.1894 7.125 11.0113C6.97348 10.8333 6.75 10.6818 6.45455 10.5568C6.16288 10.4318 5.80492 10.3182 5.38068 10.2159L4.11364 9.89771C3.13258 9.65908 2.35795 9.28597 1.78977 8.77839C1.22159 8.27082 0.939394 7.58711 0.943182 6.72726C0.939394 6.02271 1.12689 5.40718 1.50568 4.88067C1.88826 4.35415 2.41288 3.94317 3.07955 3.64771C3.74621 3.35226 4.50379 3.20453 5.35227 3.20453C6.21591 3.20453 6.9697 3.35226 7.61364 3.64771C8.26136 3.94317 8.76515 4.35415 9.125 4.88067C9.48485 5.40718 9.67045 6.01703 9.68182 6.71021H7.32386ZM11.0526 5.39203V3.36362H20.6094V5.39203H17.0469V15H14.6151V5.39203H11.0526ZM22.767 15H20.1307L24.1477 3.36362H27.3182L31.3295 15H28.6932L25.7784 6.02271H25.6875L22.767 15ZM22.6023 10.4261H28.8295V12.3466H22.6023V10.4261ZM32.7301 15V3.36362H37.321C38.1998 3.36362 38.9498 3.52082 39.571 3.83521C40.196 4.14582 40.6714 4.58711 40.9972 5.15908C41.3267 5.72726 41.4915 6.39582 41.4915 7.16476C41.4915 7.93748 41.3248 8.60226 40.9915 9.15908C40.6581 9.71211 40.1752 10.1363 39.5426 10.4318C38.9138 10.7273 38.1525 10.875 37.2585 10.875H34.1847V8.89771H36.8608C37.3305 8.89771 37.7206 8.83332 38.0312 8.70453C38.3419 8.57574 38.5729 8.38256 38.7244 8.12498C38.8797 7.86741 38.9574 7.54733 38.9574 7.16476C38.9574 6.77839 38.8797 6.45264 38.7244 6.18748C38.5729 5.92233 38.34 5.72158 38.0256 5.58521C37.715 5.44506 37.3229 5.37498 36.8494 5.37498H35.1903V15H32.7301ZM39.0142 9.70453L41.9062 15H39.1903L36.3608 9.70453H39.0142ZM43.2301 15V3.36362H47.821C48.7036 3.36362 49.4555 3.53218 50.0767 3.8693C50.6979 4.20264 51.1714 4.66665 51.4972 5.26135C51.8267 5.85226 51.9915 6.53408 51.9915 7.3068C51.9915 8.07953 51.8248 8.76135 51.4915 9.35226C51.1581 9.94317 50.6752 10.4034 50.0426 10.7329C49.4138 11.0625 48.6525 11.2273 47.7585 11.2273H44.8324V9.25567H47.3608C47.8343 9.25567 48.2244 9.17423 48.5312 9.01135C48.8419 8.84468 49.0729 8.61551 49.2244 8.32385C49.3797 8.02839 49.4574 7.68938 49.4574 7.3068C49.4574 6.92044 49.3797 6.58332 49.2244 6.29544C49.0729 6.00377 48.8419 5.77839 48.5312 5.6193C48.2206 5.45642 47.8267 5.37498 47.3494 5.37498H45.6903V15H43.2301ZM54.2514 15H51.6151L55.6321 3.36362H58.8026L62.8139 15H60.1776L57.2628 6.02271H57.1719L54.2514 15ZM54.0866 10.4261H60.3139V12.3466H54.0866V10.4261ZM62.3452 3.36362H65.1009L67.7543 8.37498H67.8679L70.5213 3.36362H73.277L69.0327 10.8863V15H66.5895V10.8863L62.3452 3.36362Z" fill="white"/>
<path fill-rule="evenodd" clip-rule="evenodd" d="M83.2028 13.8617L83.1995 13.8662L83.1963 13.8707C83.0183 14.1227 82.6196 14.1968 82.3078 13.9765C82.0581 13.8003 81.9831 13.4074 82.1957 13.097C82.5128 12.6927 82.7431 12.2201 82.8944 11.7581C83.0519 11.2771 83.1251 10.7305 83.1223 10.1944C83.1194 9.65839 83.0404 9.11264 82.8778 8.63335C82.7216 8.17297 82.4862 7.70282 82.1648 7.30196C81.9489 6.99378 82.0198 6.60018 82.2675 6.42124C82.577 6.1977 82.9765 6.26751 83.1571 6.51762L83.1604 6.52211L83.1637 6.52652C83.5638 7.05406 83.8919 7.6402 84.088 8.21525C84.2944 8.89172 84.4259 9.54609 84.4293 10.1875C84.4329 10.8625 84.3684 11.5013 84.1207 12.1302C83.851 12.8151 83.5898 13.34 83.2028 13.8617ZM86.0954 15.1145L86.1032 15.1034L86.1104 15.0919C86.9971 13.6713 87.5085 11.957 87.499 10.1711C87.4895 8.38571 86.9601 6.67739 86.0587 5.26647C85.8634 4.95671 85.9511 4.59046 86.2804 4.35263C86.5015 4.1929 86.9166 4.24945 87.1629 4.57954C88.1806 6.19417 88.7953 8.14601 88.8061 10.1642C88.8172 12.2513 88.2238 14.1397 87.2224 15.7662C86.9908 16.085 86.6362 16.1743 86.3304 15.9936C85.9988 15.7507 85.9382 15.337 86.0954 15.1145ZM91.2861 2.45725L91.2948 2.4745L91.3049 2.49099C92.6839 4.7392 93.4502 7.33244 93.4652 10.1394C93.4801 12.945 92.7421 15.5452 91.3884 17.8072C91.1808 18.1409 90.8304 18.235 90.4752 18.0697C90.1519 17.859 90.065 17.5098 90.2339 17.1571C91.3852 15.1125 92.1011 12.703 92.0875 10.1467C92.074 7.60177 91.4085 5.1962 90.1569 3.15138C89.9875 2.80223 90.0714 2.4545 90.3909 2.24139C90.7763 2.05726 91.1518 2.19222 91.2861 2.45725ZM95.3691 0.317677L95.3751 0.329461L95.3817 0.340897C97.0528 3.22943 98.0346 6.53186 98.0536 10.1149C98.0727 13.6943 97.1281 17.0039 95.491 19.9079C95.2831 20.2378 94.9344 20.3302 94.5808 20.1656C94.2585 19.9556 94.1712 19.608 94.3379 19.2564C95.915 16.5648 96.7643 13.4463 96.7466 10.1219C96.7288 6.78888 95.7717 3.68252 94.2427 1.01742C94.0511 0.628369 94.1861 0.247335 94.4535 0.111845C94.846 -0.0870303 95.2325 0.0479698 95.3691 0.317677Z" fill="white"/>
</svg>

